<svg width="1920" height="618" viewBox="0 0 1920 618" fill="none" xmlns="http://www.w3.org/2000/svg">
<path d="M-58 104.813C48.1791 55.0253 360.849 -39.5909 530.069 20.1541C741.593 94.8353 736.093 154.701 898.112 104.813C1060.13 54.9245 1096.13 -41.5258 1260.65 81.5319C1425.17 204.59 1353.66 284.108 1565.19 181.308C1776.71 78.5083 2419.79 66.8329 1985.74 181.308C1507.68 307.39 1386.67 -51.2011 1675.2 133.234C1911.31 284.156 1544.17 342.416 1326.16 259.315C1056 156.336 892.111 477.009 414.555 365.743C44.5304 279.531 675.586 623.046 596.076 480.335C422.437 168.672 244.447 346.2 123.521 447.077C30.0103 525.084 115.064 635.872 370.55 586.461C791.099 505.128 763.967 658.745 1044 588.902C1324.03 519.058 1202.2 437.003 1480.18 573.158C1609.19 636.35 1856.22 636.047 1952.73 539.899C1941.09 517.452 1882.55 486.026 1741.5 539.899" stroke="#212121"/>
</svg>
