<svg width="42" height="62" viewBox="0 0 42 62" fill="none" xmlns="http://www.w3.org/2000/svg">
<path d="M11.8578 47.1694L2.8269 31.0995H39.1731L29.0964 47.5043C25.1035 54.0046 15.5952 53.8199 11.8578 47.1694Z" fill="#212428"/>
<ellipse cx="21" cy="20.7333" rx="21" ry="20.7333" fill="#212428"/>
<ellipse cx="20.9999" cy="20.7329" rx="14.9423" ry="14.7525" fill="white"/>
<path d="M22.0538 15.4219H16.3158C15.804 15.4219 15.3892 15.8315 15.3892 16.3368C15.3892 16.842 15.804 17.2516 16.3158 17.2516H22.0538C22.5656 17.2516 22.9804 16.842 22.9804 16.3368C22.9804 15.8315 22.5656 15.4219 22.0538 15.4219Z" fill="#0082b1"/>
<path d="M14.1325 15.4219H12.0329C11.5212 15.4219 11.1063 15.8315 11.1063 16.3368C11.1063 16.842 11.5212 17.2516 12.0329 17.2516H14.1325C14.6443 17.2516 15.0591 16.842 15.0591 16.3368C15.0591 15.8315 14.6443 15.4219 14.1325 15.4219Z" fill="#0082b1"/>
<path d="M20.6944 18.4225H14.6577C14.1459 18.4225 13.7311 18.8321 13.7311 19.3373C13.7311 19.8426 14.1459 20.2521 14.6577 20.2521H20.6944C21.2061 20.2521 21.621 19.8426 21.621 19.3373C21.621 18.8321 21.2061 18.4225 20.6944 18.4225Z" fill="#0082b1"/>
<path d="M12.6316 18.4225H10.8031C10.2913 18.4225 9.87646 18.8321 9.87646 19.3373C9.87646 19.8426 10.2913 20.2521 10.8031 20.2521H12.6316C13.1433 20.2521 13.5582 19.8426 13.5582 19.3373C13.5582 18.8321 13.1433 18.4225 12.6316 18.4225Z" fill="#0082b1"/>
<path d="M19.8378 21.423H10.972C10.4603 21.423 10.0454 21.8326 10.0454 22.3379C10.0454 22.8431 10.4603 23.2527 10.972 23.2527H19.8378C20.3495 23.2527 20.7644 22.8431 20.7644 22.3379C20.7644 21.8326 20.3495 21.423 19.8378 21.423Z" fill="#0082b1"/>
<path d="M26.7022 27.4241H14.6577C14.1459 27.4241 13.7311 27.8337 13.7311 28.3389C13.7311 28.8441 14.1459 29.2537 14.6577 29.2537H26.7022C27.214 29.2537 27.6288 28.8441 27.6288 28.3389C27.6288 27.8337 27.214 27.4241 26.7022 27.4241Z" fill="#0082b1"/>
<path d="M26.7025 12.419H14.6579C14.1462 12.419 13.7313 12.8286 13.7313 13.3338C13.7313 13.8391 14.1462 14.2487 14.6579 14.2487H26.7025C27.2142 14.2487 27.6291 13.8391 27.6291 13.3338C27.6291 12.8286 27.2142 12.419 26.7025 12.419Z" fill="#0082b1"/>
<path d="M23.3662 24.4235H16.3158C15.804 24.4235 15.3892 24.8331 15.3892 25.3383C15.3892 25.8436 15.804 26.2532 16.3158 26.2532H23.3662C23.878 26.2532 24.2928 25.8436 24.2928 25.3383C24.2928 24.8331 23.878 24.4235 23.3662 24.4235Z" fill="#0082b1"/>
<path d="M14.1325 24.4235H12.4533C11.9416 24.4235 11.5267 24.8331 11.5267 25.3383C11.5267 25.8436 11.9416 26.2532 12.4533 26.2532H14.1325C14.6443 26.2532 15.0591 25.8436 15.0591 25.3383C15.0591 24.8331 14.6443 24.4235 14.1325 24.4235Z" fill="#0082b1"/>
<path d="M26.7253 22.8955C27.8819 22.8955 28.8196 21.9705 28.8196 20.8294C28.8196 19.6883 27.8819 18.7633 26.7253 18.7633C25.5686 18.7633 24.631 19.6883 24.631 20.8294C24.631 21.9705 25.5686 22.8955 26.7253 22.8955Z" fill="#0082b1"/>
<path d="M31.3808 16.3655C32.214 15.5435 32.2223 14.1824 31.2088 13.5893C30.3816 13.1052 29.473 12.76 28.5197 12.5729C26.8642 12.248 25.1483 12.4148 23.5888 13.052C22.0294 13.6893 20.6965 14.7684 19.7587 16.153C18.821 17.5376 18.3204 19.1654 18.3204 20.8306C18.3204 22.4959 18.821 24.1237 19.7587 25.5083C20.6965 26.8928 22.0294 27.972 23.5888 28.6093C25.1483 29.2465 26.8642 29.4133 28.5197 29.0884C29.473 28.9013 30.3816 28.556 31.2088 28.072C32.2223 27.4789 32.214 26.1178 31.3808 25.2958C30.5476 24.4738 29.1868 24.5429 28.0561 24.8701C27.9349 24.9052 27.8118 24.9351 27.6873 24.9595C26.8595 25.1219 26.0015 25.0386 25.2218 24.72C24.4421 24.4013 23.7756 23.8617 23.3068 23.1695C22.8379 22.4772 22.5876 21.6633 22.5876 20.8306C22.5876 19.998 22.8379 19.1841 23.3068 18.4918C23.7756 17.7995 24.4421 17.26 25.2218 16.9413C26.0015 16.6227 26.8595 16.5393 27.6873 16.7018C27.8118 16.7262 27.9349 16.7561 28.0561 16.7912C29.1868 17.1185 30.5476 17.1875 31.3808 16.3655Z" fill="#0082b1"/>
</svg>
